<svg xmlns="http://www.w3.org/2000/svg" viewBox="0 0 1280 720" role="img" aria-labelledby="title desc">
  <title id="title">AI CV screening workflow illustration</title><desc id="desc">An automation workflow from CV upload to email decision.</desc>
  <defs><linearGradient id="bg" x1="0" y1="0" x2="1" y2="1"><stop stop-color="#10171d"/><stop offset="1" stop-color="#202b2a"/></linearGradient><linearGradient id="line" x1="0" y1="0" x2="1" y2="0"><stop stop-color="#c98a4b"/><stop offset="1" stop-color="#6fae7a"/></linearGradient></defs>
  <rect width="1280" height="720" fill="url(#bg)"/><rect x="72" y="64" width="1136" height="592" rx="20" fill="#0d1418" stroke="#35423f"/><text x="112" y="120" fill="#edf0f3" font-family="Arial" font-size="25" font-weight="700">AI CV SCREENING WORKFLOW</text><text x="1015" y="118" fill="#c98a4b" font-family="Arial" font-size="15">N8N AUTOMATION</text>
  <path d="M270 355 H430 M600 355 H760 M930 355 H1010" stroke="url(#line)" stroke-width="8" stroke-linecap="round"/><path d="M415 340 l20 15-20 15 M745 340 l20 15-20 15 M995 340 l20 15-20 15" fill="none" stroke="#dca363" stroke-width="5"/>
  <g><rect x="120" y="260" width="150" height="190" rx="16" fill="#18262a" stroke="#49605a"/><circle cx="195" cy="315" r="25" fill="#c98a4b"/><path d="M181 315h28M195 301v28" stroke="#10171d" stroke-width="5"/><text x="158" y="385" fill="#edf0f3" font-family="Arial" font-size="16" font-weight="700">CV INPUT</text><text x="143" y="413" fill="#8f9c9b" font-family="Arial" font-size="13">Upload document</text></g>
  <g><rect x="430" y="260" width="170" height="190" rx="16" fill="#18262a" stroke="#49605a"/><circle cx="515" cy="315" r="25" fill="#c98a4b"/><path d="M501 324l9-10 7 6 12-15" fill="none" stroke="#10171d" stroke-width="5"/><text x="458" y="385" fill="#edf0f3" font-family="Arial" font-size="16" font-weight="700">AI ANALYSIS</text><text x="455" y="413" fill="#8f9c9b" font-family="Arial" font-size="13">Extract &amp; evaluate</text></g>
  <g><rect x="760" y="260" width="170" height="190" rx="16" fill="#18262a" stroke="#49605a"/><circle cx="845" cy="315" r="25" fill="#6fae7a"/><path d="M832 315l9 9 17-20" fill="none" stroke="#10171d" stroke-width="5"/><text x="790" y="385" fill="#edf0f3" font-family="Arial" font-size="16" font-weight="700">DECISION</text><text x="786" y="413" fill="#8f9c9b" font-family="Arial" font-size="13">Accept or reject</text></g>
  <g><rect x="1010" y="260" width="150" height="190" rx="16" fill="#18262a" stroke="#49605a"/><circle cx="1085" cy="315" r="25" fill="#6fae7a"/><path d="M1068 310h34M1068 320h25" stroke="#10171d" stroke-width="5"/><text x="1050" y="385" fill="#edf0f3" font-family="Arial" font-size="16" font-weight="700">EMAIL</text><text x="1030" y="413" fill="#8f9c9b" font-family="Arial" font-size="13">Notify candidate</text></g>
  <text x="112" y="570" fill="#899895" font-family="Arial" font-size="16">Automated candidate screening from document upload to personalized email response.</text>
</svg>